<svg id="Layer_1" data-name="Layer 1" xmlns="http://www.w3.org/2000/svg" viewBox="0 0 119 128"><title>TL_ICONSArtboard 6</title><path d="M106.81,38.61A4.19,4.19,0,0,0,111,34.43V17.68a4.19,4.19,0,0,0-4.19-4.18H12.63a4.18,4.18,0,0,0-4.18,4.18V34.43a4.19,4.19,0,0,0,4.18,4.18h3.14V90.93H12.63a4.19,4.19,0,0,0-4.18,4.19v16.74a4.19,4.19,0,0,0,4.18,4.19h94.18a4.2,4.2,0,0,0,4.19-4.19V95.12a4.2,4.2,0,0,0-4.19-4.19h-3.14V38.61ZM76.47,111.86H43v-8.37H76.47Zm30.34-16.74v16.74H80.65V101.4a2.09,2.09,0,0,0-2.09-2.1H40.89a2.1,2.1,0,0,0-2.1,2.1v10.46H12.63V95.12ZM54.49,53.26V45.94H65v7.32ZM65,57.45v3.14H54.49V57.45ZM20,41.75V38.61H99.49v3.14Zm30.35,4.19V62.68a2.08,2.08,0,0,0,2.09,2.09h5.23V70h4.19V64.77h5.23a2.09,2.09,0,0,0,2.09-2.09V45.94H99.49v3.14H72.28v4.18H90.07V90.93H29.38V53.26H47.17V49.08H20V45.94Zm49.18,7.32V90.93H94.26V53.26Zm-74.3,0V90.93H20V53.26ZM12.63,34.43V17.68h94.18V34.43Zm0,0"/><path d="M69.14,20.82H50.31a2.1,2.1,0,0,0-2.1,2.1v6.27a2.1,2.1,0,0,0,2.1,2.1H69.14a2.09,2.09,0,0,0,2.09-2.1V22.92a2.09,2.09,0,0,0-2.09-2.1ZM67.05,27.1H52.4V25H67.05Zm0,0"/><rect x="74.37" y="23.96" width="4.19" height="4.19"/><rect x="82.75" y="23.96" width="12.56" height="4.19"/><rect x="24.14" y="23.96" width="12.56" height="4.19"/><rect x="40.89" y="23.96" width="4.19" height="4.19"/><rect x="53.45" y="105.58" width="12.56" height="4.19"/><rect x="97.4" y="101.4" width="4.19" height="4.19"/><rect x="17.87" y="101.4" width="4.19" height="4.19"/></svg>