<svg id="Layer_1" data-name="Layer 1" xmlns="http://www.w3.org/2000/svg" viewBox="0 0 119 128"><title>TL_ICONSArtboard 5</title><path d="M53.86,113h35a2,2,0,0,0,2-2V63.53h5.6V109a2,2,0,0,0,0,4h12a2,2,0,0,0,0-4V63.53a2,2,0,0,0,2-2V29.89A11.63,11.63,0,0,0,98.92,18.27H19.61A11.63,11.63,0,0,0,8,29.89V61.53a2,2,0,0,0,2,2V109a2,2,0,1,0,0,4H22a2,2,0,1,0,0-4V63.53h5.61V111a2,2,0,0,0,2,2H53.86ZM36,109h-4.4V49.11a2,2,0,0,1,2-2H84.9a2,2,0,0,1,2,2V109H36Zm-18,0H14V63.53h4ZM84.9,43.11H33.63a6,6,0,0,0-2,.34V35.9H86.9v7.55A6,6,0,0,0,84.9,43.11Zm6,15.43V30.62a2,2,0,0,0-4,0v1.27H31.63V30.62a2,2,0,0,0-4,0V59.53H12V29.89a7.61,7.61,0,0,1,7.61-7.61H98.92a7.62,7.62,0,0,1,7.61,7.61V59.53H90.91ZM104.52,109h-4V63.53h4Z"/><path d="M20,45.91a2,2,0,0,0-1.42,3.42A2,2,0,0,0,22,47.91a2,2,0,0,0-2-2Z"/><path d="M98.52,42.91a2,2,0,0,0,2-2v-7a2,2,0,0,0-4,0v7A2,2,0,0,0,98.52,42.91Z"/><path d="M99.93,50.25a2,2,0,0,0,.59-1.42,2,2,0,0,0-.59-1.41,2,2,0,0,0-2.83,0,2,2,0,0,0-.59,1.41,2,2,0,0,0,3.42,1.42Z"/><path d="M20,37.7a2,2,0,0,0-1.42,3.42A2,2,0,0,0,22,39.7a2,2,0,0,0-2-2Z"/><path d="M20,29.49a2,2,0,1,0,1.42.58A2,2,0,0,0,20,29.49Z"/><path d="M70.88,78.07A11.62,11.62,0,1,0,59.26,89.69,11.63,11.63,0,0,0,70.88,78.07Zm-19.23,0a7.61,7.61,0,1,1,7.61,7.61A7.63,7.63,0,0,1,51.65,78.07Z"/><path d="M43.44,78.07a2,2,0,0,0-2-2H38a2,2,0,0,0,0,4h3.41A2,2,0,0,0,43.44,78.07Z"/><path d="M80.49,80.07a2,2,0,1,0,0-4h-3.4a2,2,0,1,0,0,4Z"/><path d="M61.27,60.25V56.84a2,2,0,0,0-4,0v3.41a2,2,0,0,0,4,0Z"/><path d="M57.26,95.9v3.4a2,2,0,0,0,4,0V95.9a2,2,0,1,0-4,0Z"/><path d="M46.66,67.47a2,2,0,0,0,1.42-3.42l-2.41-2.41a2,2,0,0,0-2.83,2.84l2.4,2.4A2,2,0,0,0,46.66,67.47Z"/><path d="M70.45,89.26a2,2,0,0,0,0,2.83l2.41,2.41a2,2,0,1,0,2.83-2.83l-2.41-2.41A2,2,0,0,0,70.45,89.26Z"/><path d="M72.86,61.64l-2.41,2.41a2,2,0,0,0,0,2.83,2,2,0,0,0,2.83,0l2.41-2.4a2,2,0,1,0-2.83-2.84Z"/><path d="M45.24,89.26l-2.4,2.41a2,2,0,0,0,1.41,3.42,2,2,0,0,0,1.42-.59l2.41-2.41a2,2,0,0,0-2.84-2.83Z"/></svg>