<svg id="Layer_1" data-name="Layer 1" xmlns="http://www.w3.org/2000/svg" viewBox="0 0 119 128"><title>TL_ICONSArtboard 7</title><path d="M29.33,31.58A9.45,9.45,0,1,0,38.78,41a9.44,9.44,0,0,0-9.45-9.44Zm0,14.17A4.73,4.73,0,1,1,34.06,41a4.73,4.73,0,0,1-4.73,4.73Zm0,0"/><path d="M29.33,67.71a9.45,9.45,0,1,0,9.45,9.45,9.45,9.45,0,0,0-9.45-9.45Zm0,14.17a4.73,4.73,0,1,1,4.73-4.72,4.73,4.73,0,0,1-4.73,4.72Zm0,0"/><path d="M101.63,69.79a32.73,32.73,0,0,0-13.36-11,20.43,20.43,0,0,0-10-38.21H29.33a20.43,20.43,0,0,0-9.52,38.5,20.42,20.42,0,0,0,9.52,38.49h23.1a2.36,2.36,0,0,0,0-4.72h-10a20.38,20.38,0,0,0,7.38-15.7,20.86,20.86,0,0,0-.4-4.06c5,7,8.07,16.69,8.07,27.32a2.36,2.36,0,0,0,2.36,2.36h48.85a2.36,2.36,0,0,0,2.36-2.36c0-11.54-3.33-22.42-9.37-30.63ZM78.22,25.32a15.71,15.71,0,0,1,0,31.41H42.38a20.4,20.4,0,0,0,0-31.41ZM13.63,41a15.71,15.71,0,1,1,15.7,15.71A15.71,15.71,0,0,1,13.63,41Zm15.7,51.84A15.71,15.71,0,1,1,45,77.16a15.71,15.71,0,0,1-15.71,15.7Zm32.77,5.2c-.42-10.66-3.69-20.62-9.32-28.27a35.32,35.32,0,0,0-8.51-8.34H78.22c14.9,0,27.12,16.22,28,36.61Zm0,0"/></svg>