<svg id="Layer_1" data-name="Layer 1" xmlns="http://www.w3.org/2000/svg" viewBox="0 0 119 128"><title>TL_ICONSArtboard 4</title><path d="M53.67,113.13H88.72a2,2,0,0,0,2-2V63.63h5.61v45.5a2,2,0,1,0,0,4h12a2,2,0,0,0,0-4V63.63a2,2,0,0,0,2-2V30A11.63,11.63,0,0,0,98.74,18.37H19.43A11.63,11.63,0,0,0,7.81,30V61.63a2,2,0,0,0,2,2v45.5a2,2,0,0,0,0,4h12a2,2,0,0,0,0-4V63.63h5.61v47.5a2,2,0,0,0,2,2H53.67Zm-17.82-4H31.44V49.21a2,2,0,0,1,2-2H84.72a2,2,0,0,1,2,2v59.92H35.85Zm-18,0h-4V63.63h4ZM84.72,43.2H33.45a5.82,5.82,0,0,0-2,.35V36H86.72v7.56A5.8,5.8,0,0,0,84.72,43.2Zm6,15.43V30.72a2,2,0,0,0-4,0V32H31.44V30.72a2,2,0,0,0-4,0v28.9H11.82V30a7.62,7.62,0,0,1,7.61-7.61H98.74A7.63,7.63,0,0,1,106.35,30V59.62H90.72Zm13.62,50.5h-4V63.63h4Z"/><path d="M19.83,46a2,2,0,0,0-2,2,2,2,0,0,0,3.41,1.41A2,2,0,0,0,21.83,48a2,2,0,0,0-2-2Z"/><path d="M98.33,43a2,2,0,0,0,2-2V34a2,2,0,0,0-4,0v7A2,2,0,0,0,98.33,43Z"/><path d="M99.75,50.34a2,2,0,1,0-2.83,0,2,2,0,0,0,2.83,0Z"/><path d="M19.83,37.79a2,2,0,0,0-1.42,3.42,2,2,0,1,0,2.83-2.83A2,2,0,0,0,19.83,37.79Z"/><path d="M19.83,29.58A2,2,0,1,0,21.24,33a2,2,0,0,0,0-2.83A2,2,0,0,0,19.83,29.58Z"/></svg>