<?xml version="1.0" encoding="utf-8"?>
<!-- Generator: Adobe Illustrator 22.1.0, SVG Export Plug-In . SVG Version: 6.00 Build 0)  -->
<svg version="1.1" id="Layer_1" xmlns="http://www.w3.org/2000/svg" xmlns:xlink="http://www.w3.org/1999/xlink" x="0px" y="0px"
	 viewBox="0 0 511 511" style="enable-background:new 0 0 511 511;" xml:space="preserve">
<path d="M499.9,63H108.5c-10-17.9-29.1-30.1-51-30.1c-15.6,0-30.7,6.4-41.5,17.6C5.2,61.6-0.4,76.1,0,91.4v324.9c0,1.1,0,2.2,0,3.3
	c-0.3,15.3,5.5,29.8,16.4,41c11.2,11.5,26.9,18.1,43,18.1H501c5.5,0,10-4.5,10-10V74.1C511,68,506,63,499.9,63z M48.4,361.9
	c-10.4,1.7-20.3,6.2-28.4,13.1V91.2c0-0.1,0-0.2,0-0.3c-0.3-9.9,3.3-19.3,10.3-26.5c7.2-7.4,16.8-11.5,27.2-11.5
	c21.1,0,38.4,17.2,38.4,38.4v284.3c-7.7-6.7-17.1-11.5-27.5-13.4c0,0-4.1-1-10.4-1.1S48.4,361.9,48.4,361.9z M491,458.7H59.4
	c-10.7,0-21.2-4.4-28.7-12.1c-7.2-7.3-11-16.8-10.7-26.7c0-0.1,0-0.2,0-0.3c0,0,0-0.1,0-0.1v-2.8c0.3-9,3.9-17.4,10.3-24
	c7.2-7.4,16.8-11.5,27.2-11.5c21.1,0,38.4,17.2,38.4,38.4c0,5.5,4.5,10,10,10c5.5,0,10-4.5,10-10V91.2c0-2.8-0.2-5.6-0.6-8.3H491
	V458.7z"/>
<path d="M169.6,289.4h147.2c5.5,0,10-4.5,10-10c0-0.5,0-1-0.1-1.4c0.1-0.5,0.1-0.9,0.1-1.4v-82.5c0-5.5-4.5-10-10-10
	c-5.5,0-10,4.5-10,10v75.3h-38.6v-29.3c0-5.5-4.5-10-10-10c-23.3,0-42.8,17-46.6,39.3h-32.1V125.8h68.7v49.9h-41.1
	c-5.5,0-10,4.5-10,10c0,5.5,4.5,10,10,10h51.1c5.5,0,10-4.5,10-10v-59.9h111c4,18.7,19.2,33.4,38.2,36.6v30.3h-52.1
	c-5.5,0-10,4.5-10,10c0,5.5,4.5,10,10,10h52.1v56.9h-47.1c-5.5,0-10,4.5-10,10c0,5.5,4.5,10,10,10h57.1c5.5,0,10-4.5,10-10V115.8
	c0-5.5-4.5-10-10-10H169.6c-5.5,0-10,4.5-10,10v163.6C159.6,284.9,164.1,289.4,169.6,289.4z M248.3,252v17.5h-16.1
	C234.6,261.5,240.6,255,248.3,252z M417.5,125.8v16.1c-8-2.4-14.4-8.4-17.5-16.1H417.5z"/>
<path d="M427.5,377.7H169.6c-5.5,0-10-4.5-10-10v-39c0-5.5,4.5-10,10-10h257.9c5.5,0,10,4.5,10,10v39
	C437.5,373.2,433,377.7,427.5,377.7z M179.6,357.7h237.9v-19.1H179.6V357.7z"/>
<path d="M384.6,424.5h-215c-5.5,0-10-4.5-10-10c0-5.5,4.5-10,10-10h215c5.5,0,10,4.5,10,10C394.6,420,390.1,424.5,384.6,424.5z"/>
</svg>
