<svg id="Layer_1" data-name="Layer 1" xmlns="http://www.w3.org/2000/svg" viewBox="0 0 119 128"><title>TL_ICONSArtboard 3</title><path d="M104.15,54.93H28.34a1.79,1.79,0,0,1-1.79-1.79V23.56a1.79,1.79,0,0,1,1.79-1.79h75.81a1.79,1.79,0,0,1,1.79,1.79V53.14A1.79,1.79,0,0,1,104.15,54.93Zm-74-3.58h72.23v-26H30.13Z"/><path d="M104.15,84.51H28.34a1.79,1.79,0,0,1-1.79-1.78V53.14a1.79,1.79,0,0,1,1.79-1.79h75.81a1.79,1.79,0,0,1,1.79,1.79V82.73A1.79,1.79,0,0,1,104.15,84.51Zm-74-3.57h72.23v-26H30.13Z"/><path d="M104.15,114.1H28.34a1.79,1.79,0,0,1-1.79-1.79V82.73a1.79,1.79,0,0,1,1.79-1.79h75.81a1.79,1.79,0,0,1,1.79,1.79v29.58A1.79,1.79,0,0,1,104.15,114.1Zm-74-3.58h72.23v-26H30.13Z"/><path d="M75.12,93.82H54.78a1.85,1.85,0,0,1-1.72-1.16l-3.7-9.25a1.88,1.88,0,0,1,.19-1.72,1.84,1.84,0,0,1,1.53-.81H78.82a1.84,1.84,0,0,1,1.71,2.53l-3.69,9.25A1.87,1.87,0,0,1,75.12,93.82ZM56,90.12H73.87l2.22-5.54H53.81Z"/><path d="M101,55H27a2.06,2.06,0,0,1-.69-.13L7.87,47.46A1.85,1.85,0,1,1,9.24,44l18.14,7.25H101a1.85,1.85,0,0,1,0,3.7Z"/><path d="M101,84.56H27a1.84,1.84,0,0,1-.69-.13L7.87,77.05a1.85,1.85,0,0,1,1.37-3.44l18.14,7.26H101a1.85,1.85,0,1,1,0,3.69Z"/><path d="M104.15,25.41H52.93a1.87,1.87,0,0,1-1.63-1,1.84,1.84,0,0,1,.09-1.89l7.31-11.1a1.89,1.89,0,0,1,1.55-.83h43.9A1.85,1.85,0,0,1,106,12.46v11.1A1.85,1.85,0,0,1,104.15,25.41Zm-47.79-3.7H102.3v-7.4H61.24Z"/><path d="M75.12,64.24H54.78a1.84,1.84,0,0,1-1.72-1.17l-3.7-9.24a1.87,1.87,0,0,1,.19-1.72,1.85,1.85,0,0,1,1.53-.82H78.82a1.85,1.85,0,0,1,1.71,2.54l-3.69,9.24A1.86,1.86,0,0,1,75.12,64.24ZM56,60.54H73.87L76.09,55H53.81Z"/><path d="M41.28,119.71H35.73a1.84,1.84,0,0,1-1.84-1.85v-5.55a1.84,1.84,0,0,1,1.84-1.85h5.55a1.85,1.85,0,0,1,1.85,1.85v5.55A1.85,1.85,0,0,1,41.28,119.71Zm-3.7-3.7h1.85v-1.85H37.58Z"/><path d="M96.75,119.71H91.21a1.85,1.85,0,0,1-1.85-1.85v-5.55a1.85,1.85,0,0,1,1.85-1.85h5.54a1.85,1.85,0,0,1,1.85,1.85v5.55A1.85,1.85,0,0,1,96.75,119.71ZM93.06,116H94.9v-1.85H93.06Z"/><path d="M37.58,38.35a5.55,5.55,0,1,1,5.55-5.55A5.55,5.55,0,0,1,37.58,38.35Zm0-7.4a1.85,1.85,0,1,0,1.85,1.85A1.85,1.85,0,0,0,37.58,31Z"/><path d="M50.53,38.35a5.55,5.55,0,1,1,5.54-5.55A5.56,5.56,0,0,1,50.53,38.35Zm0-7.4a1.85,1.85,0,1,0,1.85,1.85A1.85,1.85,0,0,0,50.53,31Z"/></svg>