<?xml version="1.0" encoding="utf-8"?>
<!-- Generator: Adobe Illustrator 22.1.0, SVG Export Plug-In . SVG Version: 6.00 Build 0)  -->
<svg version="1.1" id="Layer_1" xmlns="http://www.w3.org/2000/svg" xmlns:xlink="http://www.w3.org/1999/xlink" x="0px" y="0px"
	 viewBox="0 0 395 144" style="enable-background:new 0 0 395 144;" xml:space="preserve">
<style type="text/css">
	.st0{fill:#FFFEF4;}
	.st1{fill:#00B058;}
	.st2{fill:#FFFF00;}
	.st3{fill:#FF0000;}
	.st4{fill:#3FA9F5;}
</style>
<title>traffic-light-logoArtboard 1</title>
<path class="st0" d="M151.7,28.5v26.4h-8.1V28.5h-8.4v-6.5H160v6.5L151.7,28.5z"/>
<path class="st0" d="M190.1,54.9l-6.4-11.7h-5v11.7h-8.1V22.1h14.5c0.9,0,1.8,0,2.7,0c1.5,0.1,6.6,0.4,9.1,5.1
	c0.8,1.7,1.3,3.6,1.3,5.5c0.2,2.5-0.8,4.9-2.5,6.7c-0.5,0.5-1,0.9-1.5,1.2c-0.8,0.4-1.7,0.8-2.6,1.2l7.4,13.2H190.1z M185.5,28.1
	h-6.9v8.9h6.7c0.7,0,1.5-0.1,2.1-0.3c1.8-0.6,2.9-2.4,2.7-4.2C190.1,28.3,186.9,28.1,185.5,28.1L185.5,28.1z"/>
<path class="st0" d="M231.9,54.9l-1.6-5.3h-11.9l-1.6,5.3h-8.6l12-32.8h8.4l11.9,32.8H231.9z M224.3,29.9l-4,13.9h8.2L224.3,29.9z"
	/>
<path class="st0" d="M258.9,28.3v6.9h15.4v6.3h-15.4v13.3h-8V22.1h24.8v6.3H258.9z"/>
<path class="st0" d="M294.9,28.3v6.9h15.4v6.3h-15.4v13.3h-8V22.1h24.8v6.3H294.9z"/>
<path class="st0" d="M322.9,54.9V22.1h8v32.8H322.9z"/>
<path class="st0" d="M370.4,50.5c-3,3.4-7.3,5.4-11.8,5.4c-2.3,0-4.5-0.5-6.6-1.4c-8.5-3.9-8.9-13.5-8.9-16.1
	c-0.1-4.2,1.3-8.4,3.9-11.7c2.8-3.6,7.1-5.8,11.7-5.7c4.4,0,8.5,1.8,11.4,5.1c0.9,1.1,1.6,2.2,2.2,3.4l-6.4,3.2
	c-0.3-0.6-0.7-1.2-1.1-1.7c-1.3-1.9-3.5-3.1-5.9-3.2c-1.8,0-3.6,0.7-4.9,2c-1.3,1.3-3.1,4-3.1,8.5c0,0.7,0,1.5,0.1,2.2
	c0.5,4.5,2.5,6.6,4.3,7.6c1.1,0.6,2.3,1,3.6,0.9c4.5,0,6.3-3.6,7-4.8l6.4,3.3C371.9,48.6,371.2,49.5,370.4,50.5z"/>
<path class="st0" d="M142.3,120.2c-0.8,0-1.6-0.3-2.2-0.9c-0.6-0.6-0.9-1.5-0.9-2.4V71c0-0.9,0.3-1.8,0.9-2.4c0.5-0.6,1.3-1,2.2-1
	h9.9c0.8,0,1.6,0.4,2.2,1c0.6,0.6,0.9,1.5,0.9,2.4v33.6h20.2c0.9,0,1.7,0.3,2.4,0.9c0.6,0.6,1,1.4,1,2.3v9.4c0,0.8-0.4,1.6-1,2.2
	c-0.7,0.6-1.5,0.9-2.4,0.9h-31.4L142.3,120.2z"/>
<path class="st0" d="M184.9,117V71.3c0-0.9,0.3-1.8,0.9-2.4c0.6-0.7,1.5-1,2.4-1h10.1c0.9,0,1.7,0.4,2.2,1c0.6,0.7,0.9,1.5,0.9,2.4
	V117c0.1,0.9-0.3,1.8-0.9,2.5c-0.6,0.6-1.4,1-2.2,0.9h-10.1c-0.9,0-1.7-0.3-2.4-0.9C185.1,118.8,184.8,117.9,184.9,117z"/>
<path class="st0" d="M209.1,94.1c-0.1-4.9,1.2-9.7,3.5-14c2.2-4.1,5.6-7.6,9.6-10c3.9-2.4,8.5-3.7,13.1-3.6c0.9,0,1.6,0,2.1,0.1
	c2.2,0.1,4.5,0.5,6.6,1l0.4,0.1c0.5,0,0.9,0.2,1.3,0.6c0.3,0.4,0.5,0.9,0.4,1.3c0,0.5-0.1,1-0.3,1.4l-3,7c-0.8,2-2,3.1-3.6,3.1
	c-4,0-7.3,0.8-9.8,2.6c-2.5,1.8-4.3,4.5-4.8,7.6c-0.2,1-0.3,2-0.4,3.1c0,2.5,0.7,5,2.2,7.1c1.6,2.2,3.9,3.7,6.6,4.3
	c1.4,0.3,2.8,0.4,4.2,0.4c2.7,0.1,5.3-0.7,7.4-2.3c1.8-1.5,3.1-3.5,3.6-5.8h-4.1c-0.7,0-1.4-0.3-1.9-0.8c-0.5-0.5-0.8-1.3-0.7-2
	v-9.9c0-0.7,0.3-1.4,0.8-1.9c0.5-0.5,1.2-0.8,1.9-0.8h17.1c0.8,0,1.5,0.3,2.1,0.8c0.5,0.5,0.8,1.2,0.8,2l-0.1,5.4
	c0,0.6-0.1,1.7-0.2,3.2s-0.2,2.9-0.3,4.2c-0.4,4.3-2,8.5-4.5,12c-2.5,3.5-5.8,6.4-9.7,8.4c-3.8,2-8.1,3.1-12.4,3.1
	c-4.8,0-9.5-1.3-13.6-3.7c-4.2-2.5-7.8-5.9-10.3-10.2C210.4,103.7,209.1,98.9,209.1,94.1z"/>
<path class="st0" d="M323.8,71v46.2c0,0.8-0.3,1.7-0.9,2.3c-0.6,0.6-1.3,0.9-2.1,0.9h-10.7c-0.8,0-1.6-0.4-2.1-1
	c-0.6-0.6-1-1.3-1-2.2V99.8h-18.9v17.4c0,0.8-0.3,1.6-0.9,2.2c-0.5,0.6-1.3,1-2.2,1h-10.7c-0.8,0-1.6-0.4-2.1-1
	c-0.6-0.6-1-1.3-1-2.2V71c0-1.7,1.3-3,2.9-3.1c0.1,0,0.1,0,0.2,0H285c1.7,0,3.1,1.3,3.1,3c0,0,0,0,0,0.1v15.9H307V71
	c0-1.7,1.3-3,2.9-3.1c0.1,0,0.1,0,0.2,0h10.7c0.8,0,1.6,0.3,2.2,0.8C323.6,69.4,323.9,70.2,323.8,71z"/>
<path class="st0" d="M370.9,68c0.8,0,1.6,0.3,2.2,0.9c0.6,0.6,0.9,1.3,0.9,2.2v8.7c0,0.8-0.3,1.7-1,2.3c-0.6,0.6-1.4,1-2.2,1h-11.6
	v33.9c0,0.9-0.3,1.7-0.9,2.4c-0.5,0.6-1.3,1-2.1,1h-9.8c-0.8,0-1.6-0.3-2.1-0.9c-0.6-0.6-0.9-1.5-0.9-2.4l0.5-34h-11.8
	c-0.9,0-1.7-0.3-2.3-1c-0.6-0.6-0.9-1.4-0.9-2.3v-8.7c0-0.8,0.3-1.6,0.9-2.2c0.6-0.6,1.5-0.9,2.3-0.9L370.9,68z"/>
<rect x="18" y="18.7" class="st0" width="104.4" height="103.6"/>
<rect x="90.7" y="26.4" class="st1" width="23.2" height="22.6"/>
<rect x="90.7" y="58.4" class="st2" width="23.2" height="22.6"/>
<rect x="90.7" y="90.4" class="st3" width="23.2" height="22.6"/>
<rect x="26.3" y="26.4" class="st1" width="55.4" height="22.6"/>
<rect x="26.3" y="58.6" class="st4" width="23.2" height="54.4"/>
<rect x="58.4" y="58.4" class="st1" width="23.2" height="22.6"/>
<rect x="58.4" y="90.4" class="st1" width="23.2" height="22.6"/>
</svg>
