<svg id="Layer_1" data-name="Layer 1" xmlns="http://www.w3.org/2000/svg" viewBox="0 0 395 144"><defs><style>.cls-1{fill:#00b058;}.cls-2{fill:#ff0;}.cls-3{fill:red;}.cls-4{fill:#3fa9f5;}</style></defs><title>traffic-light-logoArtboard 1</title><path d="M151.68,28.53V54.91h-8.13V28.53h-8.4V22.06H160v6.47Z"/><path d="M190.12,54.91l-6.44-11.72h-5V54.91h-8.13V22.06h14.53c.91,0,1.82,0,2.74,0,1.46.1,6.57.42,9.09,5.12a12.11,12.11,0,0,1,1.27,5.49,8.79,8.79,0,0,1-2.51,6.71,9,9,0,0,1-1.51,1.21,20.3,20.3,0,0,1-2.6,1.16L199,54.91Zm-4.66-26.76h-6.85v8.94h6.66a6.39,6.39,0,0,0,2.15-.33,4.13,4.13,0,0,0,2.7-4.23C190.12,28.25,186.87,28.15,185.46,28.15Z"/><path d="M231.88,54.91l-1.6-5.25H218.4l-1.59,5.25h-8.59l12-32.85h8.4l11.87,32.85Zm-7.63-25-4,13.86h8.17Z"/><path d="M258.87,28.34v6.93h15.39V41.6H258.87V54.91h-8V22.06h24.75v6.28Z"/><path d="M294.87,28.34v6.93h15.39V41.6H294.87V54.91h-8V22.06h24.76v6.28Z"/><path d="M322.92,54.91V22.06h8V54.91Z"/><path d="M370.44,50.49a15.8,15.8,0,0,1-11.78,5.4,16.53,16.53,0,0,1-6.58-1.39c-8.49-3.91-8.9-13.45-8.9-16.06a18.58,18.58,0,0,1,3.93-11.73A14.51,14.51,0,0,1,358.8,21a15,15,0,0,1,11.37,5.12,20,20,0,0,1,2.24,3.4l-6.35,3.21A12,12,0,0,0,365,31a7.21,7.21,0,0,0-5.85-3.17,7,7,0,0,0-4.88,2c-1.33,1.25-3.06,4-3.06,8.51a17,17,0,0,0,.13,2.24c.55,4.51,2.47,6.56,4.25,7.58a6.73,6.73,0,0,0,3.56.93c4.52,0,6.26-3.58,7-4.84l6.39,3.31A35.76,35.76,0,0,1,370.44,50.49Z"/><path d="M142.33,120.23a3,3,0,0,1-2.17-.94,3.25,3.25,0,0,1-.92-2.36V71a3.38,3.38,0,0,1,.92-2.4,2.91,2.91,0,0,1,2.17-1h9.94a2.89,2.89,0,0,1,2.17,1,3.34,3.34,0,0,1,.92,2.4v33.6H175.6a3.48,3.48,0,0,1,2.4.9,2.91,2.91,0,0,1,1,2.25v9.45a2.82,2.82,0,0,1-1,2.17,3.48,3.48,0,0,1-2.4.9H144.25Z"/><path d="M184.85,117V71.25a3.56,3.56,0,0,1,.88-2.43,3,3,0,0,1,2.36-1h10.08a2.89,2.89,0,0,1,2.24,1,3.46,3.46,0,0,1,.92,2.43V117a3.39,3.39,0,0,1-.92,2.51,3,3,0,0,1-2.24.94H188.09a3.07,3.07,0,0,1-2.36-.94A3.49,3.49,0,0,1,184.85,117Z"/><path d="M209.12,94.05a28.25,28.25,0,0,1,3.53-14,26.53,26.53,0,0,1,9.57-10,25,25,0,0,1,13.1-3.63c.93,0,1.65,0,2.14.07a34.81,34.81,0,0,1,6.62,1l.37.08a1.76,1.76,0,0,1,1.25.6,2,2,0,0,1,.44,1.35,3.61,3.61,0,0,1-.29,1.42l-3,7Q241.66,81,239.3,81q-6,0-9.75,2.55a11.87,11.87,0,0,0-4.83,7.58,15.19,15.19,0,0,0-.36,3.07,12.25,12.25,0,0,0,2.17,7.13,10.86,10.86,0,0,0,6.59,4.27,22.55,22.55,0,0,0,4.19.45,11.21,11.21,0,0,0,7.4-2.29A10.34,10.34,0,0,0,248.28,98h-4.12a2.52,2.52,0,0,1-1.92-.78,2.81,2.81,0,0,1-.73-2V85.35a2.73,2.73,0,0,1,.77-1.95,2.46,2.46,0,0,1,1.88-.82H261.3a2.83,2.83,0,0,1,2.07.79,2.67,2.67,0,0,1,.81,2l-.15,5.4c0,.6-.11,1.67-.19,3.19s-.18,2.94-.33,4.24a24.42,24.42,0,0,1-4.49,12,27.35,27.35,0,0,1-9.71,8.44,26.38,26.38,0,0,1-12.37,3.07,26.72,26.72,0,0,1-13.61-3.71A29,29,0,0,1,213,107.85,26,26,0,0,1,209.12,94.05Z"/><path d="M323.82,71v46.2a3.08,3.08,0,0,1-.88,2.25,2.89,2.89,0,0,1-2.14.9H310.13a2.91,2.91,0,0,1-2.13-1,3,3,0,0,1-1-2.18V99.75H288.13v17.4a3.12,3.12,0,0,1-.92,2.18,2.9,2.9,0,0,1-2.18,1H274.36a2.91,2.91,0,0,1-2.13-1,3,3,0,0,1-1-2.18V71a3,3,0,0,1,3.09-3.07H285a3.06,3.06,0,0,1,3.1,3.07v15.9H307V71a3,3,0,0,1,3.09-3.07H320.8a3,3,0,0,1,2.21.83A3.06,3.06,0,0,1,323.82,71Z"/><path d="M370.87,68a3.06,3.06,0,0,1,2.21.94A2.93,2.93,0,0,1,374,71.1v8.7a3.14,3.14,0,0,1-.95,2.25,3,3,0,0,1-2.21,1H359.24v33.9a3.51,3.51,0,0,1-.85,2.4,2.65,2.65,0,0,1-2.1,1h-9.78a2.69,2.69,0,0,1-2.1-.94,3.35,3.35,0,0,1-.85-2.36l.52-34H332.3a3.07,3.07,0,0,1-2.32-1,3.2,3.2,0,0,1-.92-2.25V71.1a3,3,0,0,1,.92-2.17,3.2,3.2,0,0,1,2.32-.9Z"/><rect x="18" y="18.67" width="104.41" height="103.64"/><rect class="cls-1" x="90.65" y="26.4" width="23.16" height="22.58"/><rect class="cls-2" x="90.65" y="58.42" width="23.16" height="22.58"/><rect class="cls-3" x="90.65" y="90.44" width="23.16" height="22.58"/><rect class="cls-1" x="26.31" y="26.4" width="55.41" height="22.58"/><rect class="cls-4" x="26.31" y="58.59" width="23.16" height="54.44"/><rect class="cls-1" x="58.38" y="58.42" width="23.16" height="22.58"/><rect class="cls-1" x="58.38" y="90.44" width="23.16" height="22.58"/></svg>